<svg xmlns="http://www.w3.org/2000/svg" viewBox="0 0 300.856 79.288"><defs><style>.cls-1{fill:#002e66;}</style></defs><g id="Layer_2" data-name="Layer 2"><g id="Layer_1-2" data-name="Layer 1"><path class="cls-1" d="M42.843,25.57V54.718H35.582V25.57H25.158V18.413h28.11V25.57Z"/><path class="cls-1" d="M75.049,54.718,72.2,46.627H58.919l-2.852,8.091h-7.78l13.9-36.305H69.24l13.8,36.305ZM67.373,33.142c-.726-2.126-1.452-4.305-1.815-5.653-.363,1.348-1.089,3.527-1.815,5.653l-2.334,6.587h8.3Z"/><path class="cls-1" d="M108.237,54.718,94.908,34.905c-.882-1.348-2.075-3.163-2.542-4.1,0,1.349.1,5.913.1,7.936V54.718H85.313V18.413h6.95L105.125,37.6c.882,1.348,2.075,3.163,2.541,4.1,0-1.349-.1-5.913-.1-7.935V18.413h7.157V54.718Z"/><path class="cls-1" d="M142.514,54.718l-9.854-17.53-5.809,6.846V54.718H119.59V18.413h7.261v10.32c0,1.349-.052,4.617-.1,5.758.519-.83,1.868-2.49,2.853-3.683l10.166-12.395h8.765L137.9,30.964l13.33,23.754Z"/><path class="cls-1" d="M152.467,54.718V18.413h7.261V47.561h18.2v7.157Z"/><path class="cls-1" d="M180.159,54.718V18.413h25.206v7.105H187.419v6.275h18.724v7.054H187.419v8.765h18.724v7.106Z"/><path class="cls-1" d="M233.575,54.718l-2.853-8.091H217.445l-2.853,8.091h-7.78l13.9-36.305h7.054l13.8,36.305ZM225.9,33.142c-.727-2.126-1.452-4.305-1.816-5.653-.363,1.348-1.089,3.527-1.815,5.653l-2.334,6.587h8.3Z"/><path class="cls-1" d="M266.762,54.718,253.433,34.905c-.882-1.348-2.074-3.163-2.541-4.1,0,1.349.1,5.913.1,7.936V54.718h-7.158V18.413h6.95L263.651,37.6c.881,1.348,2.074,3.163,2.541,4.1,0-1.349-.1-5.913-.1-7.935V18.413h7.158V54.718Z"/><path class="cls-1" d="M34.793,79.014V63.546h3.123v6.088h6.119V63.546h3.123V79.014H44.035V72.25H37.916v6.764Z"/><path class="cls-1" d="M54.707,79.014V63.546H66.176v2.617H57.83v3.428H65.6V72.2H57.83v4.21h8.641v2.606Z"/><path class="cls-1" d="M72.65,73.981l3.038-.3A3.707,3.707,0,0,0,76.8,75.933a3.367,3.367,0,0,0,2.263.717,3.476,3.476,0,0,0,2.274-.638A1.9,1.9,0,0,0,82.1,74.52a1.407,1.407,0,0,0-.322-.935,2.573,2.573,0,0,0-1.123-.669q-.549-.19-2.5-.676a8.487,8.487,0,0,1-3.524-1.53A4.025,4.025,0,0,1,73.209,67.6a3.975,3.975,0,0,1,.67-2.211,4.2,4.2,0,0,1,1.93-1.566,7.735,7.735,0,0,1,3.044-.538,6.534,6.534,0,0,1,4.384,1.276,4.511,4.511,0,0,1,1.546,3.408L81.66,68.1a2.654,2.654,0,0,0-.86-1.714,3.15,3.15,0,0,0-1.978-.522,3.576,3.576,0,0,0-2.132.558,1.129,1.129,0,0,0-.5.96,1.19,1.19,0,0,0,.464.94,8.225,8.225,0,0,0,2.87,1.034,15.068,15.068,0,0,1,3.37,1.113,4.35,4.35,0,0,1,1.71,1.571,4.607,4.607,0,0,1,.617,2.465A4.56,4.56,0,0,1,84.487,77,4.423,4.423,0,0,1,82.4,78.724a8.764,8.764,0,0,1-3.365.564,6.7,6.7,0,0,1-4.5-1.355A5.9,5.9,0,0,1,72.65,73.981Z"/><path class="cls-1" d="M92.153,63.546h3.123v8.377a17.312,17.312,0,0,0,.116,2.586,2.5,2.5,0,0,0,.955,1.524,3.32,3.32,0,0,0,2.063.575,3.139,3.139,0,0,0,2-.544,2.14,2.14,0,0,0,.813-1.334,17.288,17.288,0,0,0,.138-2.627V63.546h3.122V71.67a20.845,20.845,0,0,1-.253,3.935,4.348,4.348,0,0,1-.934,1.942,4.716,4.716,0,0,1-1.82,1.261,7.914,7.914,0,0,1-2.975.469,8.587,8.587,0,0,1-3.36-.511,4.818,4.818,0,0,1-1.81-1.329,4.278,4.278,0,0,1-.875-1.715,18.789,18.789,0,0,1-.306-3.926Z"/><path class="cls-1" d="M112.131,79.014V63.546h3.039l6.33,10.329V63.546h2.9V79.014h-3.134l-6.235-10.087V79.014Z"/><path class="cls-1" d="M139.22,73.327V70.72h6.731v6.163a8.478,8.478,0,0,1-2.843,1.672,10.364,10.364,0,0,1-3.772.722A8.474,8.474,0,0,1,135.1,78.26a6.476,6.476,0,0,1-2.711-2.912,9.4,9.4,0,0,1-.907-4.121,8.907,8.907,0,0,1,1.012-4.294,6.82,6.82,0,0,1,2.965-2.88,8,8,0,0,1,3.7-.77,7.381,7.381,0,0,1,4.5,1.208,5.45,5.45,0,0,1,2.084,3.339l-3.1.58a3.278,3.278,0,0,0-1.23-1.8,3.709,3.709,0,0,0-2.252-.659,4.225,4.225,0,0,0-3.254,1.3A5.461,5.461,0,0,0,134.7,71.1a6.057,6.057,0,0,0,1.224,4.131,4.086,4.086,0,0,0,3.207,1.377,5.372,5.372,0,0,0,1.968-.385,6.682,6.682,0,0,0,1.693-.934V73.327Z"/><path class="cls-1" d="M17.176,71.521C5.088,59.433-.67,46.724.062,33.749,1.17,14.105,16.845,1.4,17.512.872A4,4,0,0,1,20,0H158.943l-6.476,8H21.508C18.365,10.9,8.774,20.808,8.045,34.269c-.572,10.58,4.4,21.21,14.788,31.6Z"/><path class="cls-1" d="M72.726.872A3.821,3.821,0,0,1,75.15,0H210.264l-6.3,8H76.612"/><path class="cls-1" d="M280.852,74.692H152.467l6.476-8H279.349c3.143-2.9,12.733-12.808,13.462-26.269.573-10.579-4.4-21.21-14.788-31.594l5.658-5.658c12.087,12.089,17.845,24.8,17.113,37.772-1.108,19.644-16.783,32.347-17.45,32.878A4.006,4.006,0,0,1,280.852,74.692Z"/></g></g></svg>